<?xml version="1.0" encoding="UTF-8" standalone="no"?><!DOCTYPE svg PUBLIC "-//W3C//DTD SVG 1.1//EN" "http://www.w3.org/Graphics/SVG/1.1/DTD/svg11.dtd"><svg width="100%" height="100%" viewBox="0 0 20 20" version="1.1" xmlns="http://www.w3.org/2000/svg" xmlns:xlink="http://www.w3.org/1999/xlink" xml:space="preserve" style="fill-rule:evenodd;clip-rule:evenodd;stroke-linejoin:round;stroke-miterlimit:1.41421;"><path d="M14.09,15.038c-3.187,2.718 -7.984,2.624 -11.064,-0.342c-3.28,-3.159 -3.379,-8.388 -0.221,-11.669c3.157,-3.281 8.383,-3.38 11.663,-0.221c3.127,3.012 3.362,7.906 0.64,11.199l4.183,3.464c0.125,0.104 0.201,0.255 0.208,0.417c0.008,0.162 -0.053,0.319 -0.168,0.434c-0.304,0.304 -0.705,0.705 -1.01,1.011c-0.116,0.116 -0.276,0.177 -0.44,0.168c-0.164,-0.009 -0.316,-0.088 -0.418,-0.216l-3.373,-4.245Zm-0.601,-1.72c-2.52,2.619 -6.69,2.698 -9.308,0.177c-2.617,-2.521 -2.696,-6.693 -0.176,-9.312c2.52,-2.618 6.69,-2.697 9.307,-0.176c2.618,2.521 2.697,6.693 0.177,9.311Z" style="fill:#2840a0;"/></svg>